<mxfile host="app.diagrams.net" agent="Mozilla/5.0 (Windows NT 10.0; Win64; x64) AppleWebKit/537.36 (KHTML, like Gecko) Chrome/128.0.0.0 Safari/537.36 Edg/128.0.0.0" version="24.7.16">
  <diagram name="第 1 页" id="FvlG9qOFmkv-KVoIZPBf">
    <mxGraphModel dx="1158" dy="653" grid="1" gridSize="10" guides="1" tooltips="1" connect="1" arrows="1" fold="1" page="1" pageScale="1" pageWidth="827" pageHeight="1169" math="0" shadow="0">
      <root>
        <mxCell id="0" />
        <mxCell id="1" parent="0" />
        <mxCell id="0UibtLx0bg4T6_MDQ2ON-1" value="&lt;font style=&quot;font-size: 11px;&quot;&gt;metax_queue-&amp;gt;ctx&lt;/font&gt;&lt;div style=&quot;font-size: 11px;&quot;&gt;&lt;font style=&quot;font-size: 11px;&quot;&gt;（一个queue一个dma_fence,所有fence属于不同的contex）&lt;/font&gt;&lt;/div&gt;" style="rounded=0;whiteSpace=wrap;html=1;align=left;verticalAlign=top;" vertex="1" parent="1">
          <mxGeometry x="480" y="150" width="130" height="340" as="geometry" />
        </mxCell>
        <mxCell id="0UibtLx0bg4T6_MDQ2ON-7" style="edgeStyle=orthogonalEdgeStyle;rounded=0;orthogonalLoop=1;jettySize=auto;html=1;exitX=0.5;exitY=1;exitDx=0;exitDy=0;entryX=0.5;entryY=0;entryDx=0;entryDy=0;" edge="1" parent="1" source="0UibtLx0bg4T6_MDQ2ON-2" target="0UibtLx0bg4T6_MDQ2ON-5">
          <mxGeometry relative="1" as="geometry" />
        </mxCell>
        <mxCell id="0UibtLx0bg4T6_MDQ2ON-2" value="load_seq" style="rounded=0;whiteSpace=wrap;html=1;" vertex="1" parent="1">
          <mxGeometry x="505" y="240" width="80" height="40" as="geometry" />
        </mxCell>
        <mxCell id="0UibtLx0bg4T6_MDQ2ON-3" value="signaled_seq&lt;div&gt;(&lt;font color=&quot;#f20202&quot;&gt;load_seq - 1&lt;/font&gt;)&lt;/div&gt;" style="rounded=0;whiteSpace=wrap;html=1;" vertex="1" parent="1">
          <mxGeometry x="505" y="410" width="80" height="40" as="geometry" />
        </mxCell>
        <mxCell id="0UibtLx0bg4T6_MDQ2ON-8" style="edgeStyle=orthogonalEdgeStyle;rounded=0;orthogonalLoop=1;jettySize=auto;html=1;exitX=1;exitY=0.5;exitDx=0;exitDy=0;entryX=0;entryY=0.5;entryDx=0;entryDy=0;" edge="1" parent="1" source="0UibtLx0bg4T6_MDQ2ON-4" target="0UibtLx0bg4T6_MDQ2ON-9">
          <mxGeometry relative="1" as="geometry">
            <mxPoint x="540" y="300" as="targetPoint" />
          </mxGeometry>
        </mxCell>
        <mxCell id="0UibtLx0bg4T6_MDQ2ON-4" value="cas pkt执行" style="rounded=0;whiteSpace=wrap;html=1;verticalAlign=top;align=left;" vertex="1" parent="1">
          <mxGeometry x="294" y="270" width="120" height="60" as="geometry" />
        </mxCell>
        <mxCell id="0UibtLx0bg4T6_MDQ2ON-10" style="edgeStyle=orthogonalEdgeStyle;rounded=0;orthogonalLoop=1;jettySize=auto;html=1;exitX=0.5;exitY=1;exitDx=0;exitDy=0;entryX=0.5;entryY=0;entryDx=0;entryDy=0;" edge="1" parent="1" source="0UibtLx0bg4T6_MDQ2ON-5" target="0UibtLx0bg4T6_MDQ2ON-3">
          <mxGeometry relative="1" as="geometry" />
        </mxCell>
        <mxCell id="0UibtLx0bg4T6_MDQ2ON-5" value="cas buffer" style="rounded=0;whiteSpace=wrap;html=1;" vertex="1" parent="1">
          <mxGeometry x="505" y="330" width="80" height="40" as="geometry" />
        </mxCell>
        <mxCell id="0UibtLx0bg4T6_MDQ2ON-9" value="写入" style="text;html=1;align=center;verticalAlign=middle;whiteSpace=wrap;rounded=0;" vertex="1" parent="1">
          <mxGeometry x="527" y="285" width="35" height="30" as="geometry" />
        </mxCell>
        <mxCell id="0UibtLx0bg4T6_MDQ2ON-11" value="更新" style="text;html=1;align=center;verticalAlign=middle;whiteSpace=wrap;rounded=0;" vertex="1" parent="1">
          <mxGeometry x="527" y="370" width="35" height="30" as="geometry" />
        </mxCell>
        <mxCell id="0UibtLx0bg4T6_MDQ2ON-13" style="edgeStyle=orthogonalEdgeStyle;rounded=0;orthogonalLoop=1;jettySize=auto;html=1;exitX=0.995;exitY=0.287;exitDx=0;exitDy=0;exitPerimeter=0;" edge="1" parent="1" source="0UibtLx0bg4T6_MDQ2ON-12" target="0UibtLx0bg4T6_MDQ2ON-11">
          <mxGeometry relative="1" as="geometry">
            <Array as="points">
              <mxPoint x="413" y="385" />
            </Array>
          </mxGeometry>
        </mxCell>
        <mxCell id="0UibtLx0bg4T6_MDQ2ON-12" value="&lt;font style=&quot;font-size: 11px;&quot;&gt;metax_fence_process&lt;/font&gt;&lt;div style=&quot;font-size: 11px;&quot;&gt;&lt;font style=&quot;font-size: 11px;&quot;&gt;(会不断将cas_buffer的值更新到signal_seq中，如果检测到signaled_seq等于load_seq,表明eop执行完了，可以调用dma_fence_signal,其他流程对dma_fence_wait就会被唤醒)&lt;/font&gt;&lt;/div&gt;" style="rounded=0;whiteSpace=wrap;html=1;align=left;" vertex="1" parent="1">
          <mxGeometry x="294" y="340" width="120" height="150" as="geometry" />
        </mxCell>
      </root>
    </mxGraphModel>
  </diagram>
</mxfile>
